<svg width="105" height="78" viewBox="0 0 105 78" fill="none" xmlns="http://www.w3.org/2000/svg">
<path d="M11.3237 60.492C11.3237 60.492 10.7769 66.6578 16.3858 66.6578C21.9948 66.6578 84.8925 66.7991 84.8925 66.7991C84.8925 66.7991 90.0957 66.2514 91.8596 60.6333C93.6234 55.0152 101.437 23.6562 101.437 23.6562C101.437 23.6562 102.266 18.0381 96.3749 17.8967C90.4838 17.7554 84.4868 17.8967 84.4868 17.8967C84.4868 17.8967 81.2061 17.8967 79.5658 15.2997C77.9254 12.7026 77.6432 12.1549 77.6432 12.1549C77.6432 12.1549 77.2375 9.96423 74.3625 10.1056C71.4875 10.2469 56.1775 9.96423 56.1775 9.96423C56.1775 9.96423 53.1614 10.1056 51.2565 12.0136C49.3516 13.9217 46.8822 15.706 46.8822 15.706C46.8822 15.706 43.6015 17.8967 42.2257 17.8967C40.85 17.8967 3.93329 18.9921 3.93329 18.9921L37.4282 22.1368C37.4282 22.1368 44.5364 22.6845 48.3638 19.9461C52.1913 17.2077 54.9252 14.4693 54.9252 14.4693L73.1102 14.1867C73.1102 14.1867 75.2973 22.2605 82.6877 22.2605C90.0781 22.2605 93.7645 21.9778 93.7645 21.9778C93.7645 21.9778 97.3274 21.8365 96.4984 24.8575C95.6694 27.8786 87.2031 59.7853 87.2031 59.7853C87.2031 59.7853 86.9209 62.665 83.7813 62.8064C80.6417 62.9477 16.7915 62.9477 16.7915 62.9477C16.7915 62.9477 15.1512 63.2304 11.3237 60.4743V60.492Z" fill="#F05124"/>
<path d="M6.13806 26.8009L59.7404 26.6596C59.7404 26.6596 73.3924 25.7055 74.9093 37.7545C76.0557 46.8 66.7075 54.5205 61.2397 56.3755C55.278 58.4072 37.6222 59.5733 44.554 42.5422C44.554 42.5422 44.2894 55.7395 58.0825 51.9941C68.877 49.0614 69.3532 41.1112 67.3778 36.2528C66.2842 33.5674 62.7918 31.995 56.7067 31.73C47.2526 31.306 6.12042 26.8009 6.12042 26.8009H6.13806Z" fill="#F05124"/>
<path d="M9.91266 35.1574L42.4022 35.2457C42.4022 35.2457 39.633 38.1961 39.1744 39.4858L9.91266 35.1574Z" fill="#F05124"/>
<path d="M13.599 43.0899L37.0578 43.6376C37.0578 43.6376 35.5938 46.0403 35.3116 48.0544L13.599 43.0723V43.0899Z" fill="#F05124"/>
</svg>
