<?xml version="1.0" encoding="UTF-8"?>
<svg xmlns="http://www.w3.org/2000/svg" version="1.1" viewBox="0 0 1024 1024">
  <!-- Generator: Adobe Illustrator 30.0.0, SVG Export Plug-In . SVG Version: 2.1.1 Build 123)  -->
  <defs>
    <style>
      .st0 {
        stroke: red;
        stroke-dasharray: 12.03 12.03;
      }

      .st0, .st1 {
        stroke-miterlimit: 10;
      }

      .st0, .st2 {
        fill: none;
      }

      .st1 {
        stroke: #000;
      }

      .st1, .st3, .st4 {
        fill: #fff;
      }

      .st1, .st5 {
        display: none;
      }

      .st3 {
        font-family: ErasITC-Bold, 'Eras Bold ITC';
        font-size: 108.46px;
        font-weight: 700;
      }

      .st6 {
        fill: #efbf04;
      }

      .st6, .st2 {
        stroke: #efbf04;
        stroke-linecap: round;
        stroke-linejoin: round;
        stroke-width: 21px;
      }

      .st4 {
        font-family: ArialRoundedMTBold, 'Arial Rounded MT Bold';
        font-size: 231.78px;
      }
    </style>
  </defs>
  <g id="Texte">
    <rect class="st1" width="1024" height="1024" rx="73.28" ry="73.28"/>
  </g>
  <g id="texte">
    <text class="st4" transform="translate(200.22 794)"><tspan x="0" y="0">Bindy</tspan></text>
    <text class="st3" transform="translate(294.89 916.91)"><tspan x="0" y="0">STUDIO</tspan></text>
  </g>
  <g id="dessin">
    <path class="st2" d="M394.44,128.31v-12.89s-1.11-3.33-5.11-3.11-34.44-.01-34.44-.01c0,0-3.33-.66-3.33,3.57v12.44h42.89Z"/>
    <path class="st2" d="M525.08,196.02c-18.9.32-53.3,11.93-53.3,53.63,0,39.11,31.79,55.87,50.67,56,20.22.14,59-11.04,56.3-58.07-2.37-41.19-35.06-51.87-53.66-51.56Z"/>
    <path class="st2" d="M430.89,262.98v-18.96s2.5-87.11,94.44-89.48,95.19,89.48,95.19,89.48v15.7"/>
    <path class="st2" d="M744.82,221.98v-65s-2.15-28-31.93-28.44-74.22,0-74.22,0c0,0-11.56-.44-17.33-9.78s-25.78-44.44-25.78-44.44c0,0-2.22-8-12.89-8.44s-116.44,0-116.44,0c0,0-8.89,1.33-12,8.44s-24.89,46.22-24.89,46.22c0,0-3.11,9.33-12.89,9.33h-84.89s-26.22,1.33-26.22,27.11v62.67"/>
    <path class="st2" d="M291.04,280.83v173.63s111.41,21.33,183.7,66.37l.59-174.81s-75.85-48.59-184.3-65.19Z"/>
    <polyline class="st2" points="303.48 453.87 347.93 420.69 368.07 437.28 419.04 403.5 471.78 476.39"/>
    <path class="st2" d="M805.41,207.94v285.63s-185.48,30.81-280.3,116.74c0,0-104.89-96-282.67-116.74V207.94s176.59,28.44,281.48,112.59c0,0,68.15-68.74,281.48-112.59Z"/>
    <path class="st2" d="M845.7,252.98v284.44s-143.78-8.3-320.52,74.52c0,0-48.74-56.3-322.52-76.74v-278.22h34.67"/>
    <line class="st2" x1="524.19" y1="606.61" x2="523.93" y2="322.31"/>
    <path class="st6" d="M343.48,336.17c-6.03.06-16.49,1.41-16.3,17.78.15,12.81,11.56,15.7,16.3,15.7s16.52-4.96,16.89-15.92c.35-10.29-5.32-17.67-16.89-17.56Z"/>
  </g>
  <g id="Calque_3" class="st5">
    <circle class="st0" cx="512" cy="512" r="505.56"/>
  </g>
</svg>