<?xml version="1.0" encoding="UTF-8"?><svg xmlns="http://www.w3.org/2000/svg" viewBox="0 0 261 500"><defs><style>.cls-1{fill:#fab98a;}.cls-2{fill:#fff;}.cls-3{fill:#3c3c48;}.cls-4{fill:#4f03c2;}.cls-5{fill:#1a100e;}.cls-6{fill:#905eff;}.cls-7{fill:#e4765d;}.cls-8{fill:#6e3feb;}.cls-9{fill:#5727c6;}.cls-10{fill:#f9907e;}</style></defs><g id="BACKGROUND"><rect class="cls-2" width="500" height="500"/></g><g id="OBJECTS"><path class="cls-3" d="M39.82,130.54c0,2.52-2.05,4.58-4.58,4.58s-4.58-2.05-4.58-4.58,2.05-4.58,4.58-4.58,4.58,2.05,4.58,4.58ZM38.39,130.54c0-1.73-1.41-3.14-3.14-3.14s-3.14,1.41-3.14,3.14,1.41,3.14,3.14,3.14,3.14-1.41,3.14-3.14Z"/><path class="cls-9" d="M58.5,124.37c0,2.52-2.05,4.58-4.58,4.58s-4.58-2.05-4.58-4.58,2.05-4.58,4.58-4.58,4.58,2.05,4.58,4.58ZM57.06,124.37c0-1.73-1.41-3.14-3.14-3.14s-3.14,1.41-3.14,3.14,1.41,3.14,3.14,3.14,3.14-1.41,3.14-3.14Z"/><path class="cls-8" d="M59.09,104.72c-.4,0-.72.32-.72.72v3.17c0,.4.32.72.72.72s.72-.32.72-.72v-3.17c0-.4-.32-.72-.72-.72Z"/><path class="cls-8" d="M59.09,99.18c-.4,0-.72.32-.72.72v3.17c0,.4.32.72.72.72s.72-.32.72-.72v-3.17c0-.4-.32-.72-.72-.72Z"/><path class="cls-8" d="M63.53,103.54h-2.84c-.4,0-.72.32-.72.72s.32.72.72.72h2.84c.4,0,.72-.32.72-.72s-.32-.72-.72-.72Z"/><path class="cls-8" d="M57.49,103.54h-2.84c-.4,0-.72.32-.72.72s.32.72.72.72h2.84c.4,0,.72-.32.72-.72s-.32-.72-.72-.72Z"/><path class="cls-9" d="M39.69,109.79c-.4,0-.72.32-.72.72v3.17c0,.4.32.72.72.72s.72-.32.72-.72v-3.17c0-.4-.32-.72-.72-.72Z"/><path class="cls-9" d="M39.69,104.25c-.4,0-.72.32-.72.72v3.17c0,.4.32.72.72.72s.72-.32.72-.72v-3.17c0-.4-.32-.72-.72-.72Z"/><path class="cls-9" d="M44.13,108.61h-2.84c-.4,0-.72.32-.72.72s.32.72.72.72h2.84c.4,0,.72-.32.72-.72s-.32-.72-.72-.72Z"/><path class="cls-9" d="M38.09,108.61h-2.84c-.4,0-.72.32-.72.72s.32.72.72.72h2.84c.4,0,.72-.32.72-.72s-.32-.72-.72-.72Z"/><polygon class="cls-1" points="123.46 413.51 121.82 423.89 129.73 424.71 132.09 414.29 123.46 413.51"/><path class="cls-8" d="M125.49,422.5s4.06-.38,5.13-.18c1.07.2,6.91,9.46,9.26,10.34,4.25,1.6,3.1,8.46.37,8.35-7.9-.31-20.58-5.81-20.58-5.81,0,0,.26-9.01,1.26-11.68.99-2.67,2.27-.57,4.57-1.02Z"/><path class="cls-2" d="M130.63,431.09c-.14,0-.29-.04-.4-.15-.22-.21-.23-.55-.02-.77.07-.07,1.71-1.79,3.45-2.19,2.31-.54,3.64,1.02,3.69,1.09.19.23.16.57-.07.76-.23.19-.57.16-.76-.07-.04-.04-.96-1.1-2.61-.72-1.42.33-2.89,1.86-2.9,1.88-.1.11-.23.16-.37.17Z"/><path class="cls-2" d="M129.42,429.22c-.14,0-.29-.04-.4-.15-.22-.21-.23-.55-.02-.77.07-.07,1.71-1.79,3.45-2.19,2.32-.54,3.64,1.02,3.69,1.09.19.23.16.57-.07.76-.23.19-.57.16-.76-.07-.04-.04-.96-1.1-2.61-.72-1.42.33-2.89,1.86-2.9,1.88-.1.11-.23.16-.37.17Z"/><path class="cls-2" d="M132.46,432.82c-.14,0-.29-.04-.4-.15-.22-.21-.23-.55-.02-.77.07-.07,1.71-1.79,3.45-2.19,2.32-.54,3.64,1.02,3.69,1.09.19.23.16.57-.07.76-.23.19-.57.16-.76-.07-.04-.04-.96-1.1-2.61-.72-1.42.33-2.89,1.86-2.9,1.88-.1.11-.23.16-.37.17Z"/><path class="cls-3" d="M169.26,295.01s-.47,2.34-1.29,6.21c-.21,1.02-.45,2.16-.71,3.39-2.75,12.99-7.86,36.46-12.27,53.01-6.18,23.2-21.04,60.72-21.04,60.72l-10.12-1.66-1-.17-2.4-.39s4.87-24.32,9.78-45.35c3.24-13.87,8.39-47.01,11.51-67.95,1.61-10.8,2.69-18.36,2.69-18.36l24.84,10.56Z"/><path class="cls-5" d="M169.26,295.01s-.47,2.34-1.29,6.21c-.21,1.02-.45,2.16-.71,3.39-4.8.27-17.77-.79-25.53-1.8,1.61-10.8,2.69-18.36,2.69-18.36l24.84,10.56Z"/><path class="cls-5" d="M148.17,298.48c-.11.8-10.95,77.18-24.34,118.19l-1-.17c13.38-40.88,24.23-117.37,24.34-118.16l.99.14Z"/><polygon class="cls-1" points="202.39 418.61 202.13 427.75 193.77 427.37 193.51 417.67 202.39 418.61"/><path class="cls-8" d="M199.99,427.34s1.8-2.38,3.22-2.27c1.42.11,12.29,8.88,16.03,9.62,3.74.74,2.99,3.5,2.3,4.9-.7,1.4-29.87-.74-29.87-.74,0,0-.74-8.69.23-11.35.97-2.65,5.17.44,8.1-.17Z"/><path class="cls-2" d="M205.99,433.45c-.13.04-.28.02-.41-.05-.25-.15-.34-.47-.19-.72.05-.08,1.21-2.06,2.75-2.83,2.05-1.02,3.64.15,3.71.2.23.17.28.5.1.73-.17.23-.5.28-.73.1-.04-.03-1.15-.82-2.61-.1-1.26.62-2.3,2.4-2.31,2.41-.07.12-.18.2-.31.24Z"/><path class="cls-2" d="M204.44,431.96c-.13.04-.28.03-.41-.05-.25-.15-.34-.47-.19-.72.05-.08,1.21-2.06,2.75-2.83,2.06-1.02,3.64.15,3.71.2.23.17.28.5.1.73-.17.23-.5.28-.73.1-.04-.03-1.15-.82-2.61-.1-1.26.63-2.3,2.4-2.31,2.41-.07.12-.18.2-.31.24Z"/><path class="cls-2" d="M208.11,434.66c-.13.04-.28.03-.41-.05-.25-.15-.34-.47-.19-.72.05-.08,1.21-2.06,2.75-2.83,2.06-1.02,3.64.15,3.71.2.23.17.28.5.1.73-.17.23-.5.28-.73.1-.04-.03-1.15-.82-2.61-.1-1.26.63-2.3,2.4-2.31,2.41-.07.12-.18.2-.31.24Z"/><path class="cls-3" d="M203.93,420.98l-8.49-.57-1.01-.06-2.06-.14s-5.6-49.59-7.33-62.79c-1.5-11.47-8.28-37.23-12.68-53.25-1.25-4.55-2.3-8.31-3-10.74-.53-1.91-.84-3-.84-3l28.36-2.97s.08.62.22,1.74c.29,2.29.86,6.69,1.54,12.21,1.89,15.04,4.77,38.44,5.9,50.35,2.92,30.68-.61,69.21-.61,69.21Z"/><path class="cls-5" d="M198.63,301.42l-26.28,2.76c-1.25-4.55-2.3-8.31-3-10.74l27.73-4.22c.29,2.29.86,6.69,1.54,12.21Z"/><path class="cls-5" d="M195.44,420.41l-1.01-.06c-.61-15.34-2.42-53.66-5.62-69.88-4.02-20.45-13.14-50.21-13.24-50.51l.96-.29c.09.3,9.23,30.11,13.26,50.61,3.22,16.33,5.04,54.83,5.65,70.14Z"/><path class="cls-9" d="M207.75,220.45c-4.97-14.9-5.91-27.51-5.91-27.51-7.35,7.69-7.15,33.59-7.15,33.59.86,2.91,2.05,5.64,3.37,8.1,3.25-4.72,6.49-9.44,9.69-14.19Z"/><path class="cls-8" d="M140.36,273.39c-.03.4-.05.8-.07,1.2-.42,7.18-.72,12.74-.85,15.48,6.82,2.3,13.68,3.93,20.58,4.91.31.04.62.09.94.13.17.02.34.04.5.06.37.05.74.1,1.11.14.41.05.82.1,1.24.14,4.7.5,9.43.7,14.17.6.96-.02,1.91-.06,2.87-.1.06,0,.12,0,.18,0,.24-.01.49-.03.73-.04.15,0,.3-.02.44-.03,5.53-.32,11.08-1.07,16.66-2.21.09-1.24.21-3.08.35-5.4.03-.43.05-.87.08-1.34h0c.2-3.32.43-7.45.67-12.11.02-.4.04-.8.06-1.21.16-3.11.33-6.44.5-9.91.02-.4.04-.8.06-1.21.17-3.56.34-7.26.5-11.02.1-2.29.2-4.61.29-6.93.09-2.35.19-4.7.27-7.03.02-.51.04-1.02.05-1.53.79-22.09,1.08-42.42-.32-44.78-.97-1.63-3.3-3.62-6.07-5.64-.34-.25-.68-.49-1.03-.74-1.18-.84-10.97-4.84-12.19-5.66l-10.52-1.37c-.07.03-10.37,2.83-10.44,2.86-.45.22-.9.45-1.35.67-3.87,1.93-7.7,3.98-9.94,5.81-.33.26-.62.53-.87.78-.2.2-.38.4-.53.6-.14.18-.28.48-.42.9-1.56,4.57-3.33,22.78-4.86,42.62-.11,1.42-.22,2.85-.32,4.29-.05.63-.09,1.26-.14,1.89-.04.43-.07.87-.1,1.3-.02.22-.03.43-.05.65-.08,1.08-.16,2.16-.23,3.23-.06.79-.11,1.58-.17,2.38-.7,10-1.31,19.71-1.78,27.63Z"/><path class="cls-9" d="M177.75,195.28c-5.62-.34-10.45-6.63-10.66-6.91-.13-.18-.1-.42.08-.56.17-.13.42-.1.56.08.05.07,5.11,6.65,10.56,6.6.22,0,.4.17.4.39,0,.22-.17.4-.39.4-.18,0-.36,0-.54-.01Z"/><path class="cls-9" d="M168.83,262.21c-.2-.01-.36-.17-.37-.38-.01-.22.16-.41.38-.42,14.63-.8,22.16-25.58,22.24-25.83.06-.21.28-.33.49-.27.21.06.33.28.27.49-.31,1.04-7.77,25.57-22.95,26.4-.02,0-.03,0-.05,0Z"/><path class="cls-9" d="M175.07,254.95c-.13,0-.26-.08-.33-.21-.1-.19-.03-.43.16-.54,8.01-4.3,9.59-11.25,9.6-11.32.05-.21.26-.35.47-.31.21.05.35.26.31.47-.06.3-1.65,7.37-10,11.86-.07.04-.14.05-.21.05Z"/><path class="cls-3" d="M163.81,149.79s-2.69-8.98,1.92-11.29c4.6-2.31,8.13-1.36,10.92-3.12s10.62-7.38,15.45-4.38,6.26,15.12-.8,16.62c-7.52,1.6-27.48,2.16-27.48,2.16Z"/><path class="cls-10" d="M190.81,156.95s2.68-3.16,4.36-.31c1.68,2.84-1.41,10.76-5.81,8.52l1.45-8.21Z"/><path class="cls-7" d="M190.5,162.72c.17.01.33-.09.38-.26.85-2.45,3.49-3.3,3.52-3.31.2-.06.31-.28.25-.48-.06-.2-.28-.31-.48-.25-.12.04-3.04.97-4.01,3.79-.07.2.04.42.24.49.03.01.07.02.1.02Z"/><path class="cls-7" d="M193.18,161.62c.07,0,.14-.01.21-.05.18-.1.25-.34.15-.52-.02-.03-.43-.75-1.36-1.24-.19-.1-.42-.03-.52.16-.1.19-.03.42.16.52.72.38,1.05.93,1.05.94.07.12.19.19.31.19Z"/><path class="cls-10" d="M165.27,155.4s-2.28-3.45-4.29-.83c-2.01,2.62.11,10.85,4.74,9.15l-.46-8.32Z"/><path class="cls-7" d="M164.89,161.17c-.17,0-.31-.13-.35-.3-.55-2.53-3.07-3.7-3.1-3.71-.19-.09-.28-.31-.19-.5.09-.19.31-.28.5-.19.12.05,2.9,1.33,3.53,4.25.04.21-.09.41-.29.45-.04,0-.07.01-.1,0Z"/><path class="cls-7" d="M162.36,159.76c-.07,0-.14-.03-.2-.07-.17-.12-.21-.36-.08-.53.02-.03.52-.7,1.5-1.07.2-.07.42.03.49.22.07.2-.03.42-.22.49-.76.29-1.15.8-1.15.8-.08.11-.21.16-.33.16Z"/><path class="cls-1" d="M171.03,170.92l-.48,8.03s2.15,4.23,5.37,4.71c3.22.48,6.32-3.15,6.32-3.15l.5-8.31-11.71-1.27Z"/><path class="cls-10" d="M171.03,170.92l-.21,3.56c2.03,2.54,5.85,3.38,11.61,2.88l.31-5.17-11.71-1.27Z"/><path class="cls-1" d="M163.81,149.79c-.04,3.13.02,7.05.43,10.2h0s0,.03,0,.04c0,0,0,0,0,0,.1.77.22,1.5.36,2.15.09.38.18.79.29,1.2,1.54,6.08,5.43,14.99,16.75,11.71,4.77-1.38,7.49-6.05,9.04-11.21.09-.31.18-.61.26-.9.05-.2.1-.38.15-.57l.07-.28s.02-.08.02-.1c0-.01,0-.02,0-.02.97-3.97,1.33-8.03,1.45-10.94.12-2.96-1.33-5.77-3.82-7.39-6.74-4.38-14.2-3.35-19.16-1.77-3.45,1.09-5.8,4.26-5.84,7.87Z"/><path class="cls-3" d="M190.69,156.87s-1.82,6.48-3.94,10.16c-1.04-1.94-3.92-3.56-5.68-3.58-1.45-.02-3.11.32-3.47.93-.43-.54-1.68-1.05-2.88-1.35-1.64-.41-4.66.34-6.23,1.83-.66-1.85-1.76-3.49-2.14-5.1-.5-2.1-.78-5.89-.78-5.89l-1.73.11s.14,11.03,1.22,13.37c1.08,2.34,2.25,3.72,2.69,6.22.43,2.5,2.26,3.09,3.16,3.15.9.06,2.36,1.73,4.32,2.56,1.96.83,2.87-.36,4.87-.54s2.62-.54,4.04-1.75c1.41-1.21,2.44-2.85,3.38-4.42.94-1.57,2.35-4.02,2.37-5.22.01-1.2,2.19-6.98,2.2-10.09l-1.39-.4ZM184.65,169.43c-4.4,1.82-4.6,3.99-8.25,3.03-2.46-.64-1.7-1.84-3.73-1.99-1.93-.14-3.23-1.19-3.67-3.5.8-.68,2.32-1.7,4.02-1.57,2.51.21,3.48.62,4.48-.18.08-.07.15-.13.19-.2.76,1.02,1.96.71,4.44,1.15,1.66.3,2.86,1.66,3.47,2.52-.31.34-.63.6-.94.72Z"/><path class="cls-3" d="M171.68,156.09c-.05.86.35,1.58.89,1.61.54.03,1.03-.64,1.08-1.49.05-.86-.35-1.58-.89-1.61-.54-.03-1.03.64-1.08,1.49Z"/><path class="cls-3" d="M183.66,156.81c-.05.86.35,1.58.89,1.61.54.03,1.03-.64,1.08-1.49.05-.86-.35-1.58-.89-1.61-.54-.03-1.03.64-1.08,1.49Z"/><path class="cls-3" d="M168.8,151.06s3.99-1.83,7.2-.63l-.22,1.76s-4.63-.15-6.9.91c-.24-.66-.31-1.34-.08-2.04Z"/><path class="cls-3" d="M188.3,152.06s-3.89-2.11-7.2-1.13l.1,1.79s4.66.17,6.87,1.39c.29-.65.4-1.32.22-2.05Z"/><path class="cls-10" d="M177.54,163.41c-.64-.04-1.27-.33-1.36-.37-.19-.09-.27-.32-.18-.51.09-.19.32-.27.51-.18.34.16,1.15.43,1.52.24.07-.04.17-.11.21-.34.22-1.32.12-5.81.12-5.85,0-.21.16-.39.37-.39.21,0,.39.16.39.37,0,.19.1,4.6-.13,6-.09.52-.38.78-.61.9-.25.13-.55.17-.84.15Z"/><path class="cls-2" d="M182.04,166.6c-.38,1.44-1.5,4.06-4.74,3.87-3.25-.2-4.01-2.7-4.22-4.41l8.97.54Z"/><path class="cls-3" d="M165.56,153.88c.01-1.6.25-3.33,1.32-3.56,1.48-.31.85-4.02,2.98-5.48,2.13-1.47,6.7-1.63,9.59.4,2.89,2.02,6.38.24,7.75.65,1.37.4,3.13,2.42,2.51,4.17-.62,1.75.84,2.92,1.1,4.79.07.51.01,1.24-.11,2.03.47.13.93.27,1.39.41.32-2.3.48-4.46.55-6.2.12-2.97-1.33-5.77-3.82-7.39-6.74-4.38-14.2-3.35-19.17-1.78-3.45,1.09-5.8,4.27-5.85,7.87-.02,1.3-.01,2.74.02,4.21.58-.04,1.15-.08,1.73-.12Z"/><path class="cls-3" d="M199.48,241.92h60.39c2.93,0,5.31,2.38,5.31,5.31v1.32c0,2.93-2.38,5.31-5.31,5.31h-60.39c-2.93,0-5.31-2.38-5.31-5.31v-1.32c0-2.93,2.38-5.31,5.31-5.31Z" transform="translate(477.56 18.22) rotate(90)"/><path class="cls-5" d="M171.32,224.86h58.87v32.76c0,7.34-5.96,13.3-13.3,13.3h-32.26c-7.34,0-13.3-5.96-13.3-13.3v-32.76h0Z" transform="translate(448.64 47.14) rotate(90)"/><path class="cls-6" d="M235.64,235.4v-7.12h20.67c1.75,0,3.16,1.42,3.16,3.16v.79c0,1.75-1.42,3.16-3.16,3.16h-20.67Z"/><path class="cls-6" d="M235.64,267.5v-7.12h20.67c1.75,0,3.16,1.42,3.16,3.16v.79c0,1.75-1.42,3.16-3.16,3.16h-20.67Z"/><path class="cls-1" d="M179.37,268.35l1.69.71c1.51.64,3.03.23,4.28-.83.55-.47,1.42-1.39,1.86-1.65,1.23-.72,4.14-1.58,4.97-1.29.83.29.05,1.73-.8,2.14-.85.42-2.1.88-2.98,1.6-.88.73,2.76,4.49,4.38,5.68,1.61,1.2,5.18,1.57,4.86,3.19-.32,1.62-2.79.84-2.79.84,0,0,.13,1.64-2.31,1.92,0,0-.2,1.47-1.77,1.63,0,0-.56,1.73-2.22,1.55-1.66-.18-6.84-.79-13.57-10.1l4.4-5.41Z"/><path class="cls-9" d="M179.88,267.43s-24.3-18.71-32.18-28.72c0,0,.99-12.23,2.18-22.02.77-6.35.9-12.76.31-19.12-.33-3.57-.87-7.02-1.76-9.07,0,0-6.82,2.23-10.61,25.26-2.07,12.54-2.75,22.46-2.97,27.63-.11,2.61.75,5.16,2.43,7.16,5.22,6.22,18.23,19.78,36.88,25.81,0,0,4.79-3.95,5.71-6.93Z"/><path class="cls-1" d="M220.76,279.52s-.81-4.56-2.53-5.89c-1.72-1.33-1.59,4.99-1.59,4.99,0,0-.21-7.63-2.04-7.93-1.83-.3-1.84,7.12-1.84,7.12,0,0-.93-5.15-2.31-5.52-1.38-.37-1.61,5.05-1.61,5.05,0,0-1.15-4.01-2.17-4.4-1.02-.39-1.75,4.15-1.29,6.51.46,2.36,3.43,1.09,3.43,1.09,0,0,2.7.93,3.7.04,0,0,2.4,1.19,3.81.57,0,0,3.95,1.36,4.43-1.64Z"/><path class="cls-1" d="M59.05,321.31s-.55,40.75-3.01,47.61c-3.34,9.29-15.44,53.84-15.44,53.84l9.67.38s22.24-42.02,24.48-53.6c2.24-11.58,4.17-41.5,4.17-41.5l-19.86-6.73Z"/><path class="cls-9" d="M48.07,420.4s2.46-2.11,3.94-1.66c1.48.45,10.97,12.26,14.77,13.91,3.79,1.65,2.41,6.53.72,6.72-1.93.21-31.09-7.39-31.09-7.39,0,0,1.4-10.69,3.04-13.28,1.64-2.59,5.37,1.66,8.63,1.7Z"/><path class="cls-2" d="M53.02,428.26c-.15.01-.3-.04-.42-.15-.23-.21-.25-.57-.04-.8.07-.08,1.76-1.91,3.57-2.36,2.41-.61,3.83,1,3.89,1.07.21.24.18.6-.06.8-.24.21-.6.18-.8-.06-.04-.04-1.03-1.14-2.75-.71-1.48.37-2.99,2.01-3.01,2.02-.1.11-.24.17-.38.18Z"/><path class="cls-2" d="M51.72,426.32c-.15.01-.3-.04-.42-.15-.23-.21-.25-.57-.04-.8.07-.08,1.76-1.91,3.57-2.36,2.42-.61,3.83,1,3.89,1.07.2.24.18.6-.06.8-.24.21-.6.18-.8-.06-.04-.04-1.03-1.14-2.75-.71-1.49.37-2.99,2.01-3.01,2.02-.1.11-.24.17-.38.18Z"/><path class="cls-2" d="M54.98,430.03c-.15.01-.3-.04-.42-.15-.23-.21-.25-.57-.04-.8.07-.08,1.76-1.91,3.57-2.36,2.42-.61,3.83,1,3.89,1.07.21.24.18.6-.06.8-.24.2-.6.18-.8-.06-.04-.04-1.03-1.14-2.75-.71-1.49.37-2.99,2.01-3.01,2.02-.1.11-.24.17-.38.18Z"/><path class="cls-1" d="M112.24,301.56s-4.3,38.2-7.4,59.15c-4.33,29.21-11.1,62.47-11.1,62.47-3.15,2.38-6.57,2.6-9.66,1.08l6.7-106.45,21.46-16.24Z"/><path class="cls-9" d="M90.69,424.69s2.02-2.54,3.55-2.38c1.53.16,13.08,9.98,17.12,10.89,4.04.91,3.6,5.96,1.97,6.47-1.85.57-31.92-1.41-31.92-1.41,0,0-.64-10.76.49-13.61,1.13-2.85,5.59.62,8.79.04Z"/><path class="cls-2" d="M97.03,431.49c-.15.04-.31.02-.44-.07-.27-.16-.35-.51-.19-.78.05-.09,1.37-2.2,3.06-2.99,2.26-1.05,3.95.26,4.02.32.25.2.29.55.09.8-.2.25-.55.29-.8.09-.05-.04-1.22-.92-2.83-.18-1.38.64-2.56,2.53-2.57,2.55-.08.13-.2.22-.34.25Z"/><path class="cls-2" d="M95.39,429.83c-.14.04-.3.02-.44-.07-.27-.16-.35-.52-.19-.78.05-.09,1.37-2.2,3.06-2.99,2.26-1.05,3.95.26,4.02.32.25.2.29.55.09.8-.2.25-.55.29-.8.09-.05-.04-1.23-.92-2.83-.18-1.39.64-2.56,2.53-2.57,2.55-.08.13-.2.22-.34.25Z"/><path class="cls-2" d="M99.29,432.86c-.14.04-.3.02-.44-.07-.27-.16-.35-.51-.19-.78.06-.09,1.37-2.2,3.06-2.99,2.26-1.05,3.95.26,4.02.32.25.2.29.55.09.8-.2.25-.55.29-.8.09-.05-.04-1.23-.92-2.83-.18-1.39.64-2.56,2.53-2.57,2.55-.08.13-.2.22-.34.25Z"/><path class="cls-1" d="M134.1,247.78c-.24,1.74-1.03,3.59-2.2,5.26-2.81,4.02-7.8,7.05-12.48,5.44-2.62-.91-4.75-6.42-6.03-9.25-1.16-2.56-1.78-4.76-1.78-4.76l11.27.56,11.2.56c.12.7.12,1.44.01,2.2Z"/><path class="cls-10" d="M134.1,247.78c-.24,1.74-1.03,3.59-2.2,5.26-5.14-.62-7.13,2.23-9.68.04-1.89-1.63-1.03-4.36-1.03-4.36l12.91-.94Z"/><path class="cls-10" d="M123.75,247.89l-10.36,1.34c-1.16-2.56-1.78-4.76-1.78-4.76l11.27.56.87,2.87Z"/><path class="cls-1" d="M122.22,243.58l-10.61-.33-5.21-14.75-4.28-10.11,4.18-27.22c3.52,10.39,6.83,20.83,9.94,31.34,2.07,7,4.06,14.03,5.97,21.08Z"/><path class="cls-5" d="M47.46,335.13s.1.33.39.8c1.01,1.68,4.29,5.2,13.19,2.47.29-.09.56-.17.83-.24,1.86-.49,3.39-.58,4.78-.48,5.23.4,8.37,3.72,18.92.29,9.51-3.09,12.08-.72,16.59.47.89.23,1.85.42,2.96.52.53.05,1.06.05,1.59.02,4.18-.23,8.13-2.62,10.49-4.36,1.39-1.03,2.23-1.84,2.23-1.84-.23-.79-.46-1.63-.7-2.53-.92-3.45-1.87-7.64-2.83-12.2-.29-1.37-.58-2.78-.86-4.21-.7-3.47-1.39-7.09-2.05-10.71h0s0-.04-.01-.06c-.28-1.5-.55-2.99-.82-4.48-.01-.07-.03-.14-.04-.21-.85-4.77-1.65-9.43-2.36-13.66-.27-1.61-.52-3.16-.77-4.62-1.32-8.05-2.16-13.6-2.16-13.6l-25.52,1.79-25.5-.14s-.25,2.83-.67,7.38c-.14,1.43-.29,3.03-.46,4.76-.45,4.56-1.01,10.06-1.65,15.88-.17,1.52-.34,3.06-.52,4.61-1.25,10.88-2.72,22.27-4.23,30.34-.27,1.44-.54,2.77-.81,3.98Z"/><path class="cls-3" d="M101.2,274.36c.04,1.33,1.15,2.37,2.48,2.32,1.33-.04,2.37-1.15,2.32-2.48-.04-1.33-1.15-2.37-2.48-2.32-1.33.04-2.37,1.15-2.32,2.48Z"/><path class="cls-3" d="M95.54,283.86c.04,1.33,1.15,2.37,2.48,2.32,1.33-.04,2.37-1.15,2.32-2.48-.04-1.33-1.15-2.37-2.48-2.32s-2.37,1.15-2.32,2.48Z"/><path class="cls-3" d="M83.67,279.43c.04,1.33,1.15,2.37,2.48,2.32,1.33-.04,2.37-1.15,2.32-2.48-.04-1.33-1.15-2.37-2.48-2.32-1.33.04-2.37,1.15-2.32,2.48Z"/><path class="cls-3" d="M102.64,293.51c.04,1.33,1.15,2.37,2.48,2.32s2.37-1.15,2.32-2.48c-.04-1.33-1.15-2.37-2.48-2.32-1.33.04-2.37,1.15-2.32,2.48Z"/><path class="cls-3" d="M87.96,292.96c.04,1.33,1.15,2.37,2.48,2.32s2.37-1.15,2.32-2.48c-.04-1.33-1.15-2.37-2.48-2.32s-2.37,1.15-2.32,2.48Z"/><path class="cls-3" d="M107.49,282.42c.04,1.25,1.03,2.25,2.25,2.32-.27-1.61-.52-3.16-.77-4.62-.9.37-1.52,1.27-1.49,2.3Z"/><path class="cls-3" d="M64.55,307.84c.04,1.33,1.15,2.37,2.48,2.32,1.33-.04,2.37-1.15,2.32-2.48s-1.15-2.37-2.48-2.32c-1.33.04-2.37,1.15-2.32,2.48Z"/><path class="cls-3" d="M65.26,294.73c.04,1.33,1.15,2.37,2.48,2.32,1.33-.04,2.37-1.15,2.32-2.48-.04-1.33-1.15-2.37-2.48-2.32-1.33.04-2.37,1.15-2.32,2.48Z"/><path class="cls-3" d="M52.5,300.81c.29.11.62.17.95.16,1.32-.04,2.36-1.15,2.32-2.48-.04-1.32-1.15-2.36-2.48-2.32-.09,0-.18.01-.28.03-.17,1.52-.34,3.06-.52,4.61Z"/><path class="cls-3" d="M63.6,317.47c.04,1.33,1.15,2.37,2.48,2.32,1.33-.04,2.37-1.15,2.32-2.48-.04-1.33-1.15-2.37-2.48-2.32-1.33.04-2.37,1.15-2.32,2.48Z"/><path class="cls-3" d="M53.21,313.97c.04,1.33,1.15,2.37,2.48,2.32,1.33-.04,2.37-1.15,2.32-2.48-.04-1.33-1.15-2.37-2.48-2.32s-2.37,1.15-2.32,2.48Z"/><path class="cls-3" d="M74.43,322.05c.04,1.33,1.15,2.37,2.48,2.32,1.33-.04,2.37-1.15,2.32-2.48-.04-1.33-1.15-2.37-2.48-2.32-1.33.04-2.37,1.15-2.32,2.48Z"/><path class="cls-3" d="M77.63,332.59c.04,1.33,1.15,2.37,2.48,2.32,1.33-.04,2.37-1.15,2.32-2.48-.04-1.33-1.15-2.37-2.48-2.32-1.33.04-2.37,1.15-2.32,2.48Z"/><path class="cls-3" d="M102.11,338.08c0,.13.02.26.04.38.89.23,1.85.42,2.96.52.53.05,1.06.05,1.59.02.15-.33.23-.69.22-1.07-.04-1.33-1.15-2.37-2.48-2.32-1.33.04-2.37,1.15-2.32,2.48Z"/><path class="cls-3" d="M61.86,338.06s0,.08,0,.12c1.86-.49,3.39-.58,4.78-.48-.14-1.23-1.2-2.16-2.46-2.12-1.32.04-2.37,1.15-2.32,2.48Z"/><path class="cls-3" d="M53.15,326.33c.04,1.33,1.15,2.37,2.48,2.32,1.33-.04,2.37-1.15,2.32-2.48-.04-1.33-1.15-2.37-2.48-2.32-1.33.04-2.37,1.15-2.32,2.48Z"/><path class="cls-3" d="M47.46,335.13s.1.33.39.8c.12.01.23.02.35.01,1.33-.04,2.37-1.15,2.32-2.48-.04-1.25-1.03-2.25-2.26-2.32-.27,1.44-.54,2.77-.81,3.98Z"/><path class="cls-3" d="M104.71,308.63c.04,1.33,1.15,2.37,2.48,2.32,1.33-.04,2.37-1.15,2.32-2.48-.04-1.33-1.15-2.37-2.48-2.32-1.33.04-2.37,1.15-2.32,2.48Z"/><path class="cls-3" d="M110.8,300.84c.04,1.22.98,2.2,2.16,2.31,0-.02,0-.04-.01-.06-.28-1.5-.55-2.99-.82-4.48-.82.41-1.37,1.26-1.34,2.23Z"/><path class="cls-3" d="M114.1,315.82c.04,1.09.79,1.98,1.78,2.25-.29-1.37-.58-2.78-.86-4.21-.58.46-.95,1.17-.92,1.97Z"/><path class="cls-3" d="M99.03,317.33c.04,1.33,1.15,2.37,2.48,2.32,1.33-.04,2.37-1.15,2.32-2.48-.04-1.33-1.15-2.37-2.48-2.32-1.33.04-2.37,1.15-2.32,2.48Z"/><path class="cls-3" d="M86.3,315.86c.04,1.33,1.15,2.37,2.48,2.32,1.33-.04,2.37-1.15,2.32-2.48-.04-1.33-1.15-2.37-2.48-2.32s-2.37,1.15-2.32,2.48Z"/><path class="cls-3" d="M94.96,303.76c.04,1.33,1.15,2.37,2.48,2.32,1.33-.04,2.37-1.15,2.32-2.48-.04-1.33-1.15-2.37-2.48-2.32-1.33.04-2.37,1.15-2.32,2.48Z"/><path class="cls-3" d="M81.99,301.78c.04,1.33,1.15,2.37,2.48,2.32,1.33-.04,2.37-1.15,2.32-2.48-.04-1.33-1.15-2.37-2.48-2.32-1.33.04-2.37,1.15-2.32,2.48Z"/><path class="cls-3" d="M75.77,289.3c.04,1.33,1.15,2.37,2.48,2.32,1.33-.04,2.37-1.15,2.32-2.48-.04-1.33-1.15-2.37-2.48-2.32-1.33.04-2.37,1.15-2.32,2.48Z"/><path class="cls-3" d="M54.66,280.32c.17.03.34.05.52.04,1.33-.04,2.37-1.15,2.32-2.48-.04-1.29-1.1-2.31-2.38-2.32-.14,1.43-.29,3.03-.46,4.76Z"/><path class="cls-3" d="M67.19,279.97c.04,1.33,1.15,2.37,2.48,2.32s2.37-1.15,2.32-2.48c-.04-1.33-1.15-2.37-2.48-2.32-1.33.04-2.37,1.15-2.32,2.48Z"/><path class="cls-3" d="M58.67,288.81c.04,1.33,1.15,2.37,2.48,2.32,1.33-.04,2.37-1.15,2.32-2.48-.04-1.33-1.15-2.37-2.48-2.32-1.33.04-2.37,1.15-2.32,2.48Z"/><path class="cls-3" d="M74.03,309.62c.04,1.33,1.15,2.37,2.48,2.32,1.33-.04,2.37-1.15,2.32-2.48-.04-1.33-1.15-2.37-2.48-2.32-1.33.04-2.37,1.15-2.32,2.48Z"/><path class="cls-3" d="M107.65,325.08c.04,1.33,1.15,2.37,2.48,2.32,1.33-.04,2.37-1.15,2.32-2.48-.04-1.33-1.15-2.37-2.48-2.32-1.33.04-2.37,1.15-2.32,2.48Z"/><path class="cls-3" d="M91.49,327.48c.04,1.33,1.15,2.37,2.48,2.32,1.33-.04,2.37-1.15,2.32-2.48-.04-1.33-1.15-2.37-2.48-2.32s-2.37,1.15-2.32,2.48Z"/><path class="cls-3" d="M116.17,332.75c.03.78.42,1.47,1.02,1.89,1.39-1.03,2.23-1.84,2.23-1.84-.23-.79-.46-1.63-.7-2.53-.07,0-.15,0-.22,0-1.33.04-2.37,1.15-2.32,2.48Z"/><path class="cls-8" d="M54.27,268.86c13.72,8.34,38.37,6.85,53.61-1.74-1.78-9.18-4.03-18.35-4.01-30.64,0-1.35.02-2.69.04-4.01.02-1.15.05-2.3.09-3.44.67-20.47,3.62-37.28,1.83-39.39-.78-.92-2.06-1.9-3.63-2.89-.62-.39-1.28-.79-1.97-1.18-1.64-.93-3.46-1.86-5.29-2.77-4.34-2.14-8.73-4.11-10.95-5.48-2.12,1.01-3.82,1.58-5.66,1.63-.05,0-.1,0-.16,0-.05,0-.1,0-.15.01-1.85.07-3.57-.39-5.76-1.25-1.97,1.4-5.7,3.39-9.49,5.55-2.79,1.59-5.62,3.27-7.82,4.88-1.44,1.06-2.6,2.08-3.31,3.03-.81,1.1-.3,5.78.65,12.7.94,6.81,2.31,15.81,3.28,25.71.27,2.75.51,5.57.7,8.43.82,12.27-.83,21.56-2.01,30.84Z"/><path class="cls-4" d="M63.39,258.94s0,0,0,0c10.82-.4,19.89-5.62,25.6-9.93,6.17-4.66,9.86-9.31,9.89-9.35.18-.23.14-.55-.09-.73-.23-.18-.55-.14-.73.09-.04.05-3.65,4.6-9.73,9.18-5.58,4.21-14.45,9.32-24.99,9.71-.29.01-.51.25-.5.54.01.29.25.51.54.5Z"/><path class="cls-4" d="M74.79,262.25c9.39-.31,18.58-5.96,19-6.22.24-.15.32-.47.17-.72-.15-.24-.47-.32-.72-.17-.11.07-10.92,6.72-20.72,6.02-.29-.02-.54.2-.56.48-.02.29.2.54.48.56.78.06,1.57.07,2.35.04Z"/><path class="cls-4" d="M81.21,203.75c.25,0,.46-.19.5-.44.04-.28-.15-.55-.43-.6-13.27-2.07-17.53-10.43-17.57-10.52-.13-.26-.44-.36-.7-.24-.26.13-.36.44-.24.7.18.36,4.54,8.93,18.34,11.09.03,0,.07,0,.1,0Z"/><path class="cls-1" d="M62.78,183.25c2.81,5.89,9.23,13.79,17.55,12.07,8.06-1.66,11.99-8,14.62-12.53-4.34-2.14-8.73-4.11-10.94-5.48-2.12,1.01-3.82,1.57-5.66,1.63-.05,0-.11,0-.16,0-.05,0-.11,0-.16.01-1.84.07-3.57-.39-5.76-1.25-1.97,1.4-5.7,3.39-9.49,5.55Z"/><path class="cls-2" d="M78.63,187.47c-8.54.28-10.33-7.82-10.34-7.91-.05-.26.11-.52.38-.58.26-.05.52.11.58.38.06.3,1.64,7.38,9.36,7.13,7.73-.25,9.12-6.97,9.18-7.25.05-.26.31-.44.57-.39.26.05.44.31.39.57-.01.08-1.58,7.77-10.11,8.04Z"/><path class="cls-3" d="M78.03,179.16h0c.05,0,.1,0,.16,0-.05,0-.1,0-.16,0Z"/><path class="cls-3" d="M63.24,136.42s-5.77,11.5-6.99,21.74c-1.42,11.92,1.78,20.52,10.91,19.7,9.13-.82,25.62,1.38,30.5-5.29,5.61-7.67-34.42-36.15-34.42-36.15Z"/><path class="cls-10" d="M90.68,153.52s2.41-3.45,4.38-.73c1.97,2.72-.42,11.03-5.08,9.17l.7-8.44Z"/><path class="cls-7" d="M90.9,159.39c.17,0,.32-.12.36-.3.63-2.56,3.22-3.67,3.25-3.69.2-.08.29-.31.21-.51-.08-.2-.31-.29-.51-.21-.12.05-2.98,1.27-3.71,4.22-.05.21.08.42.28.47.04,0,.07.01.11.01Z"/><path class="cls-7" d="M93.51,158.03c.07,0,.14-.02.21-.07.18-.12.22-.36.1-.54-.02-.03-.51-.72-1.5-1.13-.2-.08-.43.01-.51.21-.08.2.01.43.21.51.76.31,1.15.84,1.15.85.08.11.21.17.33.17Z"/><path class="cls-10" d="M64.67,154.36s-2.63-3.28-4.42-.44c-1.79,2.84,1.13,10.98,5.66,8.82l-1.24-8.38Z"/><path class="cls-7" d="M64.83,160.24c-.17,0-.33-.1-.38-.27-.79-2.51-3.46-3.46-3.48-3.47-.2-.07-.31-.29-.24-.49.07-.2.29-.31.49-.24.12.04,3.06,1.07,3.97,3.97.06.2-.05.42-.25.49-.03.01-.07.02-.1.02Z"/><path class="cls-7" d="M62.13,159.05c-.07,0-.15-.02-.21-.05-.18-.11-.24-.35-.13-.53.02-.03.46-.76,1.42-1.22.19-.09.43-.01.52.18.09.19.01.43-.18.52-.74.36-1.09.92-1.09.92-.07.12-.19.18-.32.19Z"/><path class="cls-1" d="M71.96,169.53l.27,8.17s2.57,4.08,5.88,4.26c3.3.18,6.1-3.79,6.1-3.79l-.27-8.46-11.97-.19Z"/><path class="cls-10" d="M71.96,169.53l.12,3.63c2.29,2.38,6.25,3.12,12.03,2.08l-.18-5.52-11.97-.19Z"/><path class="cls-1" d="M62.66,148.82c.25,3.17.69,7.13,1.4,10.29.18.79.37,1.53.58,2.19,1.92,5.97,6.55,16.15,18.46,11.46,5.26-2.07,7.53-8.08,8.43-14.14.61-4.12.59-8.26.44-11.21-.16-3.01-1.89-5.72-4.57-7.12-7.24-3.8-14.69-2.05-19.57,0-3.39,1.43-5.47,4.87-5.18,8.52Z"/><path class="cls-3" d="M82.99,154.25c.03.87.5,1.56,1.06,1.55.55-.02.98-.74.95-1.61-.03-.87-.5-1.57-1.06-1.55-.55.02-.98.74-.95,1.61Z"/><path class="cls-3" d="M70.59,154.65c.03.87.5,1.56,1.06,1.55s.98-.74.95-1.61c-.03-.87-.5-1.57-1.06-1.55-.55.02-.98.74-.95,1.61Z"/><path class="cls-3" d="M85.83,149.45c-.84-.21-2.54-.56-4.32-.5-.47.01-.81.44-.71.9h0c.08.38.42.63.79.6,1.21-.1,4.39-.03,5.91.53.02-.26-.14-.54-.37-.79-.34-.37-.8-.61-1.3-.73Z"/><path class="cls-3" d="M69.61,150.01c.83-.26,2.5-.72,4.28-.78.47-.02.84.39.77.85h0c-.05.38-.37.65-.75.65-1.21-.02-4.38.26-5.86.91-.04-.26.11-.55.32-.81.32-.39.76-.66,1.25-.82Z"/><path class="cls-10" d="M77.79,161.63c.3,0,.59-.07.84-.23.22-.14.5-.43.53-.97.1-1.43-.41-5.89-.43-6.08-.02-.21-.22-.37-.43-.34-.21.02-.37.22-.34.43,0,.05.52,4.58.43,5.94-.02.24-.11.32-.18.37-.36.23-1.21.03-1.56-.1-.2-.08-.43.03-.5.23-.07.2.03.42.23.5.1.04.76.27,1.41.25Z"/><path class="cls-2" d="M82.8,163.92c-.25,1.49-1.13,4.24-4.42,4.34-3.29.11-4.3-2.35-4.67-4.05l9.09-.3Z"/><path class="cls-10" d="M78.5,170.53c.95-.03,1.77-.57,1.8-.59.18-.12.23-.36.11-.54-.12-.18-.36-.23-.54-.11h0s-.68.44-1.4.46c-.78.03-1.5-.37-1.5-.37-.19-.1-.42-.04-.53.15-.1.19-.04.42.15.53.04.02.91.5,1.91.47Z"/><path class="cls-3" d="M61.08,148.23c.14.35.49.57.96.69,0,.86.12,1.88.23,2.87.66,5.6,2.11,6.54,2.38,5.14.18-.93,0-6.21-.16-7.93,1.11-.11,2.05-.32,2.05-.32l1.12-5.49.63,5.37c1.97.62,6.49-.62,6.49-.62l1.35-5.42,1.11,5.14c2.97,1.33,6.6.26,6.6.26l.66-5.6,2.12,5.51s6.32,2.04,6.31-.21c0-1.31-1.08-4.95-1.97-7.77-.98-3.07-3.1-5.63-5.91-7.02-7.88-3.91-16.01-1.43-18.76.34-5.85,3.75-5.23,15.07-5.23,15.07Z"/><path class="cls-3" d="M88.96,136s5.52,5.94,7.57,16.81,5.04,19.62-1.81,22.69c-5.64,2.52-8.15-1.94-8.11-4.12.03-2.18,7.4-10.27,2.81-26.9-1.48-5.37-.46-8.48-.46-8.48Z"/><path class="cls-2" d="M63.03,163.02c.02.5.44.9.94.88.5-.02.9-.44.88-.94-.02-.5-.44-.9-.94-.88-.5.02-.9.44-.88.94Z"/><path class="cls-2" d="M71.49,160.52c-2.68.09-4.93-2.02-5.01-4.7-.09-2.68,2.02-4.93,4.7-5.01,2.68-.09,4.93,2.02,5.01,4.7.09,2.68-2.02,4.93-4.7,5.01ZM71.2,151.57c-2.26.07-4.04,1.97-3.96,4.23.07,2.26,1.97,4.04,4.23,3.96s4.04-1.97,3.96-4.23c-.07-2.26-1.97-4.04-4.23-3.96Z"/><path class="cls-2" d="M84.76,160.09c-2.68.09-4.93-2.02-5.01-4.7-.09-2.68,2.02-4.93,4.7-5.01,2.68-.09,4.93,2.02,5.01,4.7.09,2.68-2.02,4.93-4.7,5.01ZM84.47,151.14c-2.26.07-4.04,1.97-3.96,4.23.07,2.26,1.97,4.04,4.23,3.96,2.26-.07,4.04-1.97,3.96-4.23-.07-2.26-1.97-4.04-4.23-3.96Z"/><path class="cls-2" d="M64.66,152.07c1.69.43,2.76,1.45,2.83,1.51.15.14.16.38.02.54-.07.08-.17.12-.26.12s-.19-.03-.27-.1c-.01-.01-.89-.83-2.29-1.25l-.03-.82Z"/><path class="cls-2" d="M88.44,152.85c.08-.06.76-.81,2.3-1.41l.08.95c-1.35.56-1.93,1.07-1.94,1.08-.06.04-.13.07-.2.07-.12,0-.24-.05-.32-.16-.12-.17-.08-.41.09-.53Z"/><path class="cls-2" d="M79.98,154.29s-.95-1.2-2.13-1.16c-1.17.04-1.94,1.28-1.95,1.29l-.65-.39c.04-.07.99-1.6,2.57-1.65,1.57-.05,2.71,1.39,2.75,1.45l-.6.46Z"/><path class="cls-1" d="M104,229.02c.67-20.47,3.62-37.28,1.83-39.39-.78-.92-2.06-1.9-3.63-2.89-1.33,7.4-4.57,29.64,1.8,42.28Z"/><path class="cls-1" d="M52.3,203.87c.94,6.81,2.31,15.81,3.28,25.71,4.85-12.97,1.18-34.07-.62-41.45-1.44,1.06-2.6,2.08-3.31,3.03-.81,1.1-.3,5.78.65,12.7Z"/><path class="cls-3" d="M146.85,240.99c-19.89-2.18-42.43-4.66-69.38-3.54-11.51.48-23.98,3.33-37.05,8.47-10.35,4.07-21.11,9.58-32,16.39-2.98,1.86-5.8,3.71-8.43,5.51v10.08c3.79-2.72,8.1-5.65,12.81-8.59,16.34-10.22,40.88-22.6,65.01-23.6,26.33-1.09,48.54,1.34,68.14,3.49,8.88.97,23.35,1.95,31.76,2.5v-7.45c-7.9-.54-21.99-2.28-30.86-3.25Z"/><path class="cls-1" d="M51.65,191.17s-5.44,23.12-4.19,35.74c1.24,12.62-1.02,15.54,17.2,19.01,18.77,3.58,27.31,3.65,27.31,3.65l2.06-7.01s-11.56-3.41-22.96-7.26c-8.7-2.95-11.35-5.71-11.35-5.71l-1.71-19.7s-1.45-15.3-6.36-18.72Z"/><path class="cls-1" d="M91.49,241.94l1.83.15c1.63.13,2.95-.73,3.8-2.13.38-.62.91-1.76,1.25-2.15.95-1.07,3.43-2.8,4.31-2.78.88.01.59,1.62-.09,2.29-.67.66-1.72,1.49-2.33,2.46-.6.96,4.03,3.39,5.94,4.03,1.91.63,5.41-.14,5.62,1.5.2,1.64-2.38,1.67-2.38,1.67,0,0,.63,1.52-1.59,2.55,0,0,.26,1.46-1.17,2.1,0,0,.01,1.82-1.63,2.16-1.64.35-6.74,1.39-16.05-5.34l2.48-6.51Z"/><path class="cls-1" d="M121.09,249.92s.1-2.31.79-5.63c.35-1.69,1.84-3.17,2.69-1.63.67,1.21.4,2.57.7,3.89,0,0,.17-.88.46-3.11.26-2.02,1.55-2.37,2.22-1.18.63,1.13.27,1.21.32,2.23.07,1.35.09,3.07.09,3.07,0,0-.24-1.9.47-4.47.32-1.17.6-2.45,2.15-1.41.77.52.86,2.71,1.12,4.98,0,0-.31-2.72.8-3.96.88-.99,1.95-1.17,2.12.52.21,2.18.07,2.86.1,4.18.03,1.33-.85,3.58-2.21,3.66-1.36.08-1.95-.66-2.8-.41-.85.26-2.14.84-2.9.55-.76-.29-1.39-.18-2.36.15-.95.33-3.31-.16-3.74-1.43Z"/></g></svg>