<?xml version="1.0" encoding="UTF-8"?><svg xmlns="http://www.w3.org/2000/svg" viewBox="0 0 238 500"><defs><style>.cls-1{fill:#fab98a;}.cls-2{fill:#fff;}.cls-3{fill:#3c3c48;}.cls-4{fill:#1a100e;}.cls-5{fill:#e4765d;}.cls-6{fill:#6e3feb;}.cls-7{fill:#5727c6;}.cls-8{fill:#f9907e;}</style></defs><g id="BACKGROUND"><rect class="cls-2" x="-262" width="500" height="500"/></g><g id="OBJECTS"><path class="cls-3" d="M209.04,137.28c2.52,0,4.58,2.05,4.58,4.58s-2.05,4.58-4.58,4.58-4.58-2.05-4.58-4.58,2.05-4.58,4.58-4.58ZM209.04,145c1.73,0,3.14-1.41,3.14-3.14s-1.41-3.14-3.14-3.14-3.14,1.41-3.14,3.14,1.41,3.14,3.14,3.14Z"/><path class="cls-7" d="M190.36,131.11c2.52,0,4.58,2.05,4.58,4.58s-2.05,4.58-4.58,4.58-4.58-2.05-4.58-4.58,2.05-4.58,4.58-4.58ZM190.36,138.82c1.73,0,3.14-1.41,3.14-3.14s-1.41-3.14-3.14-3.14-3.14,1.41-3.14,3.14,1.41,3.14,3.14,3.14Z"/><path class="cls-6" d="M185.2,116.04c.4,0,.72.32.72.72v3.17c0,.4-.32.72-.72.72s-.72-.32-.72-.72v-3.17c0-.4.32-.72.72-.72Z"/><path class="cls-6" d="M185.2,110.5c.4,0,.72.32.72.72v3.17c0,.4-.32.72-.72.72s-.72-.32-.72-.72v-3.17c0-.4.32-.72.72-.72Z"/><path class="cls-6" d="M180.76,114.85h2.84c.4,0,.72.32.72.72s-.32.72-.72.72h-2.84c-.4,0-.72-.32-.72-.72s.32-.72.72-.72Z"/><path class="cls-6" d="M186.8,114.85h2.84c.4,0,.72.32.72.72s-.32.72-.72.72h-2.84c-.4,0-.72-.32-.72-.72s.32-.72.72-.72Z"/><path class="cls-7" d="M204.6,121.11c.4,0,.72.32.72.72v3.17c0,.4-.32.72-.72.72s-.72-.32-.72-.72v-3.17c0-.4.32-.72.72-.72Z"/><path class="cls-7" d="M204.6,115.57c.4,0,.72.32.72.72v3.17c0,.4-.32.72-.72.72s-.72-.32-.72-.72v-3.17c0-.4.32-.72.72-.72Z"/><path class="cls-7" d="M200.15,119.92h2.84c.4,0,.72.32.72.72s-.32.72-.72.72h-2.84c-.4,0-.72-.32-.72-.72s.32-.72.72-.72Z"/><path class="cls-7" d="M206.2,119.92h2.84c.4,0,.72.32.72.72s-.32.72-.72.72h-2.84c-.4,0-.72-.32-.72-.72s.32-.72.72-.72Z"/><polygon class="cls-1" points="42.52 419.17 42.52 429.25 49.73 429.1 50.21 418.42 42.52 419.17"/><path class="cls-6" d="M44.48,428.34s-1.64-2.31-2.99-2.24c-1.35.07-11.91,8.09-15.47,8.69-3.57.6-2.94,3.23-2.32,4.59.62,1.35,28.36.13,28.36.13,0,0,.94-8.23.1-10.77-.85-2.54-4.91.27-7.68-.38Z"/><path class="cls-2" d="M38.61,433.97c.12.04.27.03.39-.04.24-.13.33-.43.2-.67-.04-.08-1.09-1.99-2.53-2.76-1.92-1.03-3.46.04-3.53.09-.22.16-.28.47-.12.69.16.22.47.28.69.12.04-.03,1.11-.75,2.48-.02,1.18.63,2.11,2.34,2.12,2.35.06.12.17.2.28.24Z"/><path class="cls-2" d="M40.13,432.6c.12.04.27.03.39-.04.24-.13.33-.43.2-.67-.04-.08-1.09-1.99-2.53-2.76-1.92-1.03-3.46.04-3.53.09-.22.16-.28.47-.12.69.16.22.47.28.69.12.04-.03,1.11-.75,2.48-.02,1.18.63,2.11,2.34,2.12,2.35.06.12.17.2.28.24Z"/><path class="cls-2" d="M36.58,435.06c.12.04.27.03.39-.04.24-.13.33-.43.2-.67-.04-.08-1.09-1.99-2.53-2.76-1.92-1.03-3.46.04-3.53.09-.22.16-.28.47-.12.69.16.22.47.28.69.12.04-.03,1.11-.75,2.48-.02,1.18.63,2.11,2.34,2.12,2.35.06.12.17.2.28.24Z"/><path class="cls-3" d="M41.04,421.01l7.34-.62.88-.07,1.78-.15s2.42-54.54,3.27-69.06c.74-12.62,5.36-40.94,8.39-58.57.86-5,1.59-9.14,2.07-11.82.37-2.1.59-3.3.59-3.3l-24.76-3.25s-.04.68-.11,1.92c-.14,2.52-.42,7.36-.74,13.43-.9,16.54-2.25,42.27-2.65,55.38-1.02,33.74,3.93,76.12,3.93,76.12Z"/><path class="cls-4" d="M39.76,289.51l22.95,3.02c.86-5,1.59-9.14,2.07-11.82l-24.28-4.64c-.14,2.52-.42,7.36-.74,13.43Z"/><path class="cls-4" d="M48.39,420.38l.88-.07c-.22-16.87-.54-59.01,1.44-76.86,2.49-22.49,8.94-55.22,9-55.55l-.85-.32c-.07.33-6.53,33.12-9.01,55.66-1.99,17.96-1.68,60.3-1.45,77.14Z"/><polygon class="cls-1" points="100.56 415.94 103.5 425.58 110.36 423.33 107.7 412.98 100.56 415.94"/><path class="cls-6" d="M105.45,424.15s-2.35-1.59-3.59-1.06c-1.24.53-8.32,11.74-11.46,13.55-3.13,1.81-1.62,4.06-.56,5.11,1.06,1.05,26.62-9.81,26.62-9.81,0,0-2-8.04-3.68-10.12-1.68-2.08-4.51,1.98-7.33,2.33Z"/><path class="cls-2" d="M101.93,431.48c.13,0,.26-.06.35-.17.18-.21.16-.52-.05-.7-.07-.06-1.72-1.48-3.34-1.7-2.16-.29-3.23,1.25-3.27,1.31-.15.23-.1.54.13.69.23.15.54.1.69-.13.03-.04.78-1.09,2.32-.89,1.32.17,2.8,1.45,2.81,1.46.1.09.23.13.35.12Z"/><path class="cls-2" d="M102.87,429.66c.13,0,.26-.06.35-.17.18-.21.16-.52-.05-.7-.07-.06-1.72-1.48-3.34-1.7-2.16-.29-3.23,1.25-3.27,1.31-.15.23-.1.54.13.69.23.15.54.1.69-.13.03-.04.78-1.09,2.32-.89,1.33.18,2.8,1.45,2.81,1.46.1.09.23.13.35.12Z"/><path class="cls-2" d="M100.4,433.21c.13,0,.26-.06.35-.17.18-.21.16-.52-.05-.7-.07-.06-1.72-1.48-3.34-1.7-2.16-.29-3.23,1.25-3.27,1.31-.15.23-.1.54.13.69.23.15.54.1.69-.13.03-.04.78-1.09,2.32-.89,1.33.18,2.8,1.45,2.81,1.46.1.09.23.13.35.12Z"/><path class="cls-3" d="M99.83,418.05l6.9-2.58.82-.3,1.68-.63s-12.39-53.17-15.49-67.38c-2.7-12.35-5.89-40.87-7.73-58.66-.52-5.05-.94-9.23-1.19-11.94-.22-2.12-.33-3.33-.33-3.33l-24.72,3.55s.14.67.41,1.88c.54,2.47,1.58,7.2,2.91,13.13,3.6,16.17,9.25,41.31,12.4,54.04,8.12,32.77,24.33,72.23,24.33,72.23Z"/><path class="cls-4" d="M63.1,291.78l22.91-3.28c-.52-5.05-.94-9.23-1.19-11.94l-24.63,2.09c.54,2.47,1.58,7.2,2.91,13.13Z"/><path class="cls-4" d="M106.73,415.46l.82-.3c-4.77-16.19-16.45-56.68-19.36-74.4-3.68-22.33-6.3-55.58-6.32-55.92l-.91-.08c.03.34,2.65,33.65,6.34,56.03,2.93,17.83,14.66,58.51,19.42,74.67Z"/><path class="cls-7" d="M55.42,216.16c-6.78,11.04-26.04,21.3-26.04,21.3-7.32-1.19-12.01-3.15-16.69-5.45,1.2-3.3,1.63-6.61,2.17-10.91,6.82,1.55,12.67,2.28,12.67,2.28,13.89-7.25,29.04-41.07,29.04-41.07,5.05,9.24-1.17,33.85-1.17,33.85Z"/><path class="cls-3" d="M95.33,195.82c-.44-1.5.54-31.59.45-34.58-.14-4.85-.4-11.54-.4-11.54-.72-14.53-15.36-17.2-15.36-17.2-17.62-3.57-23.67,11.07-24.15,19.27-.03.56-.05,1.13-.04,1.7v.05c-.18,2.67,4.24,25.21,4.76,30.89,8.81,18.99,19.46,11.28,34.74,11.42Z"/><path class="cls-6" d="M99.65,189.5s-5.09,7.8-6.71,16.91c-.58,3.24-1.27,6.44-2.07,9.14-.48,1.62-.98,3.42-1.47,5.35-2.2,8.68-4.28,19.98-4.52,29.6-.04,1.81-.02,3.55.07,5.21.72,12.46,5.26,23.36,1.17,27.73,0,0-34.24,7.89-48.03-3.78-1.14-.96-1.62-2.49-1.17-3.92,1.96-6.13,7.67-24.16,10.14-33.54,2.12-8.04,3.47-13.99,3.49-18.86,0-.41,0-.81-.02-1.21-.07-1.58-.3-3.05-.71-4.44-1.71-5.88-2.07-8.01.22-12.21.49-.91,1.07-2.49,1.69-4.43,2.23-7.06,4.86-18.75,4.86-18.75l2.64-.62,3.97-.93,2.41-.57,12.09-1.03s2.1.94,4.92,2.26c1.59.74,3.4,1.6,5.2,2.47,2.9,1.41,10.07,4.54,11.83,5.6Z"/><path class="cls-7" d="M50.53,222.15c.02.39.03.79.02,1.2,5.62,5.44,15.43,13.01,27.14,13.79.23.02.43-.16.45-.39.02-.23-.16-.43-.39-.45-11.9-.79-21.82-8.77-27.22-14.15Z"/><path class="cls-7" d="M63.86,203.77c5.95.4,11.86-5.56,12.12-5.82.16-.17.16-.43,0-.6-.17-.16-.43-.16-.6,0-.06.06-6.25,6.3-11.97,5.52-.23-.03-.44.13-.47.36-.03.23.13.44.36.47.19.03.38.05.57.06Z"/><path class="cls-7" d="M73.74,264.89c.21.01.4-.13.44-.34.04-.23-.11-.45-.34-.49-15.25-2.8-19.84-29.83-19.89-30.1-.04-.23-.25-.39-.48-.35-.23.04-.38.25-.35.48.19,1.14,4.74,27.89,20.57,30.79.02,0,.03,0,.05,0Z"/><path class="cls-7" d="M68.16,256.43c.14,0,.28-.05.37-.18.13-.19.09-.45-.1-.59-7.84-5.59-8.56-13.1-8.56-13.17-.02-.23-.22-.41-.45-.38-.23.02-.4.22-.38.45.03.32.74,7.96,8.91,13.79.07.05.14.07.22.08Z"/><path class="cls-8" d="M61.6,154.86s-2.23-3.39-4.22-.85c-1.98,2.53.08,10.57,4.64,8.96l-.42-8.11Z"/><path class="cls-2" d="M60.07,162.29c-.03.47-.42.82-.87.79-.45-.03-.79-.43-.76-.9.03-.47.42-.82.87-.79.45.03.79.43.76.9Z"/><path class="cls-5" d="M61.21,160.48c-.16-.01-.31-.13-.34-.3-.53-2.47-3.01-3.63-3.03-3.65-.19-.09-.27-.31-.19-.49.09-.19.31-.27.5-.18.12.05,2.85,1.32,3.46,4.17.04.2-.09.4-.29.44-.03,0-.07,0-.1,0Z"/><path class="cls-5" d="M58.72,159.08c-.07,0-.14-.03-.2-.07-.17-.12-.2-.36-.08-.52.02-.03.51-.67,1.48-1.03.19-.07.41.03.48.22.07.19-.03.41-.22.48-.75.27-1.13.77-1.14.77-.08.11-.2.16-.33.15Z"/><path class="cls-1" d="M79.35,172.61l-.56,8.67s-4.59,4.13-7.96,4.2c-3.37.07-4.27-4.13-4.27-4.13l.58-8.97,12.21.24Z"/><path class="cls-8" d="M79.29,173.55l-.25,3.85c-2.42,2.45-6.48,3.09-12.34,1.77l.37-5.85,12.21.24Z"/><path class="cls-1" d="M59.9,158.43c.05.94.11,1.89.21,2.85.66,6.34,4.04,13.38,8.77,14.85,10.23,3.18,15.08-5.02,17.14-11.16.23-.68-.06-1.5.13-2.32.47-1.93,1.37-4.09,1.68-6.27.22-1.51.4-3,.54-4.34.41-3.8-1.48-7.45-4.71-9.04-4.65-2.31-11.79-4.38-18.93-.66-2.64,1.37-4.41,4.13-4.67,7.26-.2,2.39-.34,5.53-.18,8.84Z"/><path class="cls-8" d="M72.26,164.16c.19.01.37-.12.42-.32.05-.23-.08-.45-.3-.51l-1.37-.34,2.25-5.16c.09-.21,0-.46-.2-.56-.2-.1-.44,0-.54.21l-2.65,6.09,2.32.57s.04,0,.07.01Z"/><path class="cls-3" d="M64.57,148.14c-4.18,1.65-3.22,6.76-4.75,9.18-.1.16-.19.18-.29.09-.17-3.37-.03-6.57.17-9.01.27-3.19,2.13-6,4.9-7.39,7.51-3.77,15.05-1.64,19.95.72,3.4,1.64,5.41,5.36,4.98,9.23-.15,1.37-.34,2.89-.56,4.43-.7.37-2.36.45-2.5,1.57-.37,2.97-.64,5-1.23,4.78-.99-.37-1.38-4.03-.08-6.28,0,0-.83-1.64-4.51-3.42-4.73-2.28-9.21-5.49-9.21-5.49,0,0-1.77-1.28-2.39-2.59,0,0-1.3,2.93-4.49,4.19Z"/><path class="cls-3" d="M67.98,156.83c-.06.93-.57,1.64-1.13,1.6-.56-.04-.97-.82-.92-1.75.06-.92.57-1.64,1.13-1.6.56.04.97.82.92,1.75Z"/><path class="cls-3" d="M79.04,157.6c-.06.93-.57,1.64-1.13,1.6-.56-.04-.97-.82-.92-1.75.06-.93.57-1.64,1.13-1.6.56.04.97.82.92,1.75Z"/><path class="cls-3" d="M64.49,152.17c.83-.11,2.51-.27,4.28-.08.46.05.81.44.73.82h0c-.07.31-.4.5-.77.44-1.2-.18-4.36-.38-5.86-.02-.03-.22.13-.45.35-.64.33-.29.79-.46,1.28-.52Z"/><path class="cls-3" d="M80.92,153.52c-.81-.24-2.45-.65-4.22-.73-.47-.02-.87.31-.83.7h0c.03.32.33.56.7.56,1.21,0,4.37.29,5.8.87.06-.22-.07-.46-.26-.69-.29-.34-.72-.57-1.19-.71Z"/><path class="cls-2" d="M67.63,166.35c.2,1.49,1.02,4.27,4.37,4.5,3.36.23,4.45-2.18,4.89-3.86l-9.26-.64Z"/><path class="cls-8" d="M71.79,173.38c-.97-.07-1.78-.67-1.82-.69-.18-.13-.22-.39-.09-.58.13-.19.37-.23.55-.1h0s.67.49,1.41.54c.8.06,1.54-.33,1.55-.34.19-.1.43-.02.53.18.1.2.02.45-.17.56-.04.02-.94.5-1.96.43Z"/><path class="cls-1" d="M86.61,156.58s3.07-3.39,4.57-.69c1.51,2.7-1.35,10.17-5.33,8.02l.75-7.33Z"/><path class="cls-2" d="M88.42,164.26c-.03.47-.42.82-.87.79-.45-.03-.79-.43-.76-.9.03-.47.42-.82.87-.79.45.03.79.43.76.9Z"/><path class="cls-8" d="M86.91,161.61c.15.01.3-.08.35-.24.79-2.31,3.19-3.1,3.22-3.11.18-.06.29-.26.23-.45-.06-.19-.25-.3-.43-.24-.11.04-2.76.9-3.67,3.56-.06.19.03.39.21.46.03.01.06.02.09.02Z"/><path class="cls-8" d="M89.35,160.59c.06,0,.13,0,.19-.04.17-.1.23-.32.14-.49-.02-.03-.39-.72-1.23-1.18-.17-.09-.38-.03-.47.15-.09.18-.03.4.14.49.65.36.94.89.95.89.06.11.17.18.28.19Z"/><rect class="cls-3" x="-25.23" y="241.92" width="71.01" height="11.94" rx="5.31" ry="5.31" transform="translate(258.16 237.62) rotate(90)"/><path class="cls-4" d="M23.06,224.86h32.26c7.34,0,13.3,5.96,13.3,13.3v32.76H9.76v-32.76c0-7.34,5.96-13.3,13.3-13.3Z" transform="translate(287.08 208.7) rotate(90)"/><path class="cls-1" d="M33.46,218.42s-1.45,4.4-3.33,5.48c-1.89,1.08-.87-5.16-.87-5.16,0,0-1.28,7.53-3.13,7.57-1.86.04-.82-7.31-.82-7.31,0,0-1.64,4.97-3.06,5.14-1.42.17-.89-5.23-.89-5.23,0,0-1.7,3.81-2.76,4.05-1.06.25-1.15-4.36-.36-6.63.79-2.27,3.55-.6,3.55-.6,0,0,2.81-.54,3.67.48,0,0,2.55-.84,3.86-.03,0,0,4.11-.8,4.16,2.25Z"/><path class="cls-1" d="M55.44,266.2l-1.73.73c-1.55.65-3.1.23-4.38-.86-.56-.48-1.45-1.42-1.9-1.69-1.26-.74-4.23-1.62-5.08-1.33-.85.29-.05,1.77.82,2.19.87.43,2.15.9,3.04,1.65.89.75-2.83,4.58-4.49,5.8-1.65,1.22-5.3,1.59-4.98,3.25.33,1.66,2.85.87,2.85.87,0,0-.13,1.67,2.36,1.97,0,0,.21,1.5,1.81,1.67,0,0,.57,1.77,2.27,1.58,1.7-.19,6.99-.8,13.89-10.3l-4.49-5.54Z"/><path class="cls-6" d="M99.67,189.5s4.39,37.11.84,50.91c-3.55,13.8-41.29,32.74-41.29,32.74l-5.57-6.61s28.74-21.22,35.19-30.68l.92-28.65s1.11-9.01,9.91-17.71Z"/><polygon class="cls-1" points="194.31 414.65 194.88 424.98 186.5 425.16 185.48 414.32 194.31 414.65"/><path class="cls-7" d="M191.56,423.53s-4.31-.98-5.49-.91c-1.18.07-8.75,9.21-11.4,9.83-4.79,1.13-4.51,8.67-1.56,8.93,8.54.76,22.95-3.38,22.95-3.38,0,0,.97-9.73.28-12.74-.7-3.01-2.36-.93-4.77-1.73Z"/><path class="cls-2" d="M184.83,432.06c.15.03.32,0,.45-.1.26-.19.32-.56.13-.82-.06-.09-1.59-2.16-3.4-2.84-2.41-.9-4.05.59-4.12.66-.24.22-.25.59-.03.83.22.24.59.25.83.03.04-.04,1.19-1.05,2.91-.41,1.48.55,2.85,2.41,2.86,2.42.09.13.23.21.37.23Z"/><path class="cls-2" d="M186.39,430.21c.15.03.32,0,.45-.1.26-.19.32-.56.13-.82-.06-.09-1.59-2.16-3.4-2.84-2.42-.9-4.05.59-4.12.66-.24.22-.25.59-.03.83.22.24.59.25.83.03.04-.04,1.19-1.05,2.91-.41,1.49.55,2.85,2.41,2.86,2.42.09.13.23.21.37.23Z"/><path class="cls-2" d="M182.62,433.66c.15.03.32,0,.45-.1.26-.19.32-.56.13-.82-.06-.09-1.59-2.16-3.4-2.84-2.42-.9-4.05.59-4.12.66-.24.22-.25.59-.03.83.22.24.59.25.83.03.04-.04,1.19-1.05,2.91-.41,1.49.55,2.85,2.41,2.86,2.42.09.13.23.21.37.23Z"/><path class="cls-3" d="M163.5,288.81s.17,2.43.49,6.45c.08,1.06.17,2.24.28,3.52,1.08,13.5,3.18,37.91,5.47,55.22,3.21,24.27,13.33,64.16,13.33,64.16l10.45-.36,1.03-.04,2.48-.08s-1.74-25.24-3.96-47.15c-1.46-14.45-2.33-48.64-2.75-70.23-.21-11.13-.32-18.92-.32-18.92l-26.5,7.43Z"/><path class="cls-4" d="M163.5,288.81s.17,2.43.49,6.45c.08,1.06.39,4.95.5,6.23,4.68.3,19.52-.45,25.84-1.18-.21-11.13-.32-18.92-.32-18.92l-26.5,7.43Z"/><path class="cls-4" d="M184.37,295.09c.01.83.97,79.49,9.15,122.72l1.03-.04c-8.19-43.09-9.15-121.87-9.16-122.69h-1.02Z"/><polygon class="cls-1" points="131.5 419.44 131.84 428.75 140.35 428.3 140.55 418.41 131.5 419.44"/><path class="cls-7" d="M134.01,428.32s-1.86-2.42-3.3-2.29c-1.44.13-12.46,9.15-16.27,9.94-3.81.79-3.03,3.59-2.3,5.02.72,1.43,30.46-.99,30.46-.99,0,0,.69-8.87-.33-11.57-1.01-2.7-5.26.49-8.26-.11Z"/><path class="cls-2" d="M127.94,434.6c.14.04.29.02.42-.05.25-.15.34-.48.19-.73-.05-.09-1.25-2.09-2.83-2.86-2.1-1.02-3.72.18-3.78.23-.23.18-.28.52-.1.75.18.23.52.28.75.1.04-.03,1.17-.85,2.66-.12,1.29.63,2.36,2.42,2.37,2.44.07.12.19.21.32.24Z"/><path class="cls-2" d="M129.51,433.07c.14.04.29.02.42-.05.25-.15.34-.48.19-.73-.05-.09-1.25-2.09-2.83-2.86-2.11-1.02-3.72.18-3.78.23-.23.18-.28.52-.1.75.18.23.52.28.75.1.04-.03,1.17-.85,2.66-.12,1.29.63,2.36,2.42,2.37,2.44.07.12.19.21.32.24Z"/><path class="cls-2" d="M125.8,435.85c.14.04.29.02.42-.05.25-.15.34-.48.19-.73-.05-.09-1.25-2.09-2.83-2.86-2.11-1.02-3.72.18-3.78.23-.23.18-.28.52-.1.75.18.23.52.28.75.1.04-.03,1.17-.85,2.66-.12,1.29.63,2.36,2.42,2.37,2.44.07.12.19.21.31.24Z"/><path class="cls-3" d="M129.94,421.87l8.66-.64,1.03-.07,2.1-.16s5.32-50.61,6.97-64.09c1.44-11.71,8.15-38.03,12.51-54.4,1.24-4.65,2.28-8.49,2.97-10.98.53-1.95.84-3.07.84-3.07l-28.94-2.8s-.08.64-.21,1.78c-.28,2.34-.82,6.83-1.48,12.47-1.81,15.35-4.56,39.23-5.62,51.39-2.73,31.31,1.17,70.58,1.17,70.58Z"/><path class="cls-4" d="M134.4,299.9l26.82,2.6c1.24-4.65,2.28-8.49,2.97-10.98l-28.32-4.09c-.28,2.34-.82,6.83-1.48,12.47Z"/><path class="cls-4" d="M138.6,421.22l1.03-.07c.5-15.65,2.04-54.74,5.17-71.31,3.94-20.89,13-51.3,13.1-51.61l-.99-.29c-.09.31-9.17,30.78-13.12,51.71-3.16,16.68-4.71,55.95-5.2,71.57Z"/><path class="cls-1" d="M111.31,253.58c2.53,14.59,14.39,3.88,15.42-7.52.23-2.56.29-5.18.26-7.7-.04-2.35-.16-4.62-.32-6.68-.03-.4-.06-.79-.1-1.17-.44-4.96-1.06-8.44-1.06-8.44l-7.76-9.54s-.9,2.67-2.06,6.79c-1.07,3.8-2.35,8.83-3.32,14.13-.29,1.6-.56,3.22-.78,4.84-.76,5.47-1.03,10.91-.27,15.29Z"/><path class="cls-8" d="M115.69,219.33c2.3,4.23,6.09,9.84,10.98,12.36-.03-.4-.06-.79-.1-1.17-.44-4.96-1.06-8.44-1.06-8.44l-7.76-9.54s-.9,2.67-2.06,6.79Z"/><path class="cls-8" d="M111.59,238.29c2.81,1.7,12.01.9,15.4.07-.04-2.81-.21-5.49-.42-7.85l-14.2,2.94c-.29,1.6-.56,3.22-.78,4.84Z"/><path class="cls-1" d="M208.41,253.58c-2.53,14.59-14.39,3.88-15.42-7.52-.23-2.56-.29-5.18-.26-7.7.04-2.35.16-4.62.32-6.68.03-.4.06-.79.1-1.17.44-4.96,1.06-8.44,1.06-8.44l7.76-9.54s.9,2.67,2.06,6.79c1.07,3.8,2.35,8.83,3.32,14.13.29,1.6.56,3.22.78,4.84.76,5.47,1.03,10.91.27,15.29Z"/><path class="cls-8" d="M204.04,219.33c-2.3,4.23-6.09,9.84-10.98,12.36.03-.4.06-.79.1-1.17.44-4.96,1.06-8.44,1.06-8.44l7.76-9.54s.9,2.67,2.06,6.79Z"/><path class="cls-8" d="M208.13,238.29c-2.81,1.7-12.01.9-15.4.07.04-2.81.21-5.49.42-7.85l14.2,2.94c.29,1.6.56,3.22.78,4.84Z"/><path class="cls-6" d="M126.53,189.5s-11.23,19.83-13.07,26.54c0,0,7.67,12.82,14.63,14.24l2.58-8.74s.27-27.36-4.14-32.03Z"/><path class="cls-6" d="M152.29,179.25l-25.76,10.25s5.24,44.23,7.23,61.2c1.99,16.98-2.73,42.18-2.73,42.18,0,0,40.08,6.06,60.62-1.11,2.87-24.09.61-62.56-2.71-102.27l-24.82-10.25h-11.83Z"/><path class="cls-7" d="M146.15,225.38c4.14,4.31,9.95,8.37,18.04,10.7.31.09.63-.12.67-.45,0,0,0,0,0-.01.03-.26-.13-.5-.38-.57-7.89-2.27-13.54-6.23-17.57-10.43-.3-.31-.83-.14-.9.29,0,0,0,0,0,.01-.03.16.02.33.14.45Z"/><path class="cls-7" d="M146.36,217.34v.02c0,.09.02.17.06.24.27.47.58.97.94,1.48,1.95,2.78,5.64,6.47,12.14,8.22.04.01.08.02.13.02.21,0,.41-.14.47-.36.07-.26-.08-.52-.34-.59-6.99-1.89-10.66-6.11-12.49-9.28-.25-.43-.91-.25-.91.25Z"/><path class="cls-7" d="M147.24,195.36s0,0,0,0c.02.29.29.5.57.45,5.88-1.14,10.5-3.77,13.59-6.01,4.24-3.09,6.49-6.09,6.59-6.21.16-.21.12-.52-.1-.68-.21-.16-.52-.11-.68.1-.08.11-7.17,9.43-19.58,11.85-.24.05-.41.26-.39.5Z"/><path class="cls-6" d="M188.94,189.5l15.99,23.16s-7.1,13.39-14.06,14.79c0,0-7.25-12.66-8.1-19.12-.85-6.46,3.67-18.28,6.17-18.83Z"/><path class="cls-3" d="M143.08,153.66c0,8.99,5.53,15.18,14.52,15.18s15.25-6.66,15.25-15.65-5.32-15.8-14.31-15.8c-10.78,0-15.47,7.28-15.47,16.27Z"/><path class="cls-3" d="M143.61,148.7s-6.7-6.63-4.2-9.75c2.5-3.12,5.77-.14,6.77-3.12.99-2.98,1.38-6.82,5.45-5.26,4.07,1.56,4.25,4.12,8.14,1.85,3.88-2.27,3.03,1.56,6.44,3.27,3.41,1.7,5.79,1.42,5.24,4.69-.55,3.27,3.27,3.94,1.71,7.55-1.56,3.61-3.39,1.79-3.39,1.79l-26.15-1.01Z"/><path class="cls-8" d="M145.1,157.53s-2.5-3.33-4.35-.58c-1.86,2.75.77,10.89,5.32,8.9l-.96-8.32Z"/><path class="cls-5" d="M145.06,163.34c-.17,0-.32-.11-.37-.28-.7-2.51-3.31-3.53-3.33-3.54-.2-.08-.3-.3-.22-.5.07-.2.3-.3.49-.22.12.05,2.99,1.16,3.8,4.05.06.2-.06.42-.27.47-.03,0-.07.01-.1.01Z"/><path class="cls-5" d="M142.44,162.08c-.07,0-.14-.02-.21-.06-.18-.11-.23-.35-.11-.53.02-.03.48-.73,1.44-1.16.19-.09.42,0,.51.19.09.19,0,.42-.19.51-.74.33-1.11.87-1.11.88-.07.11-.2.18-.32.18Z"/><path class="cls-8" d="M170.84,157.53s2.5-3.33,4.35-.58c1.86,2.75-.77,10.89-5.32,8.9l.96-8.32Z"/><path class="cls-5" d="M170.87,163.34c.17,0,.32-.11.37-.28.7-2.51,3.31-3.53,3.33-3.54.2-.08.3-.3.22-.5-.07-.2-.3-.3-.49-.22-.12.05-2.99,1.16-3.8,4.05-.06.2.06.42.27.47.03,0,.07.01.1.01Z"/><path class="cls-5" d="M173.49,162.08c.07,0,.14-.02.21-.06.18-.11.23-.35.12-.53-.02-.03-.48-.73-1.44-1.16-.19-.09-.42,0-.51.19-.09.19,0,.42.19.51.74.33,1.11.87,1.11.88.07.11.2.18.32.18Z"/><path class="cls-1" d="M164.11,172.75v8.09s-2.2,4.92-7.44,4.91c-3.27,0-4.38-4.58-4.38-4.58v-7.84l11.83-.57Z"/><path class="cls-8" d="M164.11,172.75v3.59c-2.19,2.43-6.08,3.04-11.83,2.19v-5.21l11.83-.57Z"/><path class="cls-1" d="M143.76,157.27c.12,1.71.32,3.52.66,5.32,1.08,5.96,3.53,11.83,8.79,13.71,11.92,4.26,16.18-5.97,17.88-11.92.19-.66.36-1.4.5-2.18.27-1.42.48-3,.65-4.6.19-1.94.32-3.89.4-5.61.18-3.63-2-6.95-5.39-8.26-4.89-1.88-12.31-3.36-19.34.63-2.6,1.47-4.23,4.2-4.29,7.18-.03,1.62,0,3.6.14,5.74Z"/><path class="cls-2" d="M162.16,167.74c-.28,1.46-1.24,4.15-4.49,4.16-3.26.01-4.18-2.44-4.5-4.13l8.98-.04Z"/><path class="cls-3" d="M143.76,157.27c.12,1.71.32,3.52.66,5.32,1.08,5.96,3.53,11.83,8.79,13.71,11.92,4.26,16.18-5.97,17.88-11.92.19-.66.36-1.4.5-2.18.27-1.42.48-3,.65-4.6h-1.74c-.36,1.11-2.3,7.87-2.93,8.83-1.35-3.25-8.23-1.09-8.23-1.09h-.03c-.42.14-.85.21-1.28.21s-.89-.07-1.32-.21c0,0-6.8-2.25-8.21.85-.62-.97-2.86-7.86-3.26-8.59l-1.48-.32ZM158,166.81c7.78-1.05,6.55,3.14,6.55,3.14-.86.79-1.65,1.36-2.18,1.66-1.7.95-3.37,1.31-4.58,1.25-1.19-.05-1.52.19-4.54-1.44-.53-.29-1.07-.71-1.6-1.21h0c-.13-.82-1.45-4.73,6.35-3.39Z"/><path class="cls-3" d="M152.29,158.59c0,.86-.44,1.56-.99,1.56s-.99-.7-.99-1.56.44-1.56.99-1.56.99.7.99,1.56Z"/><path class="cls-3" d="M163.9,158.55c0,.86-.44,1.56-.99,1.56s-.99-.7-.99-1.56.44-1.56.99-1.56.99.7.99,1.56Z"/><path class="cls-3" d="M147.25,154.76s3.26-2.47,6.43-2.04l.16,1.65s-4.24.81-6.09,2.24c-.36-.55-.55-1.16-.49-1.84Z"/><path class="cls-3" d="M167.4,154.76s-3.26-2.47-6.43-2.04l-.16,1.65s4.24.81,6.09,2.24c.36-.55.55-1.16.49-1.84Z"/><path class="cls-8" d="M158.1,164.64c.65,0,1.29-.25,1.39-.29.2-.08.29-.3.21-.5-.08-.2-.3-.29-.5-.21-.35.14-1.18.36-1.54.15-.07-.04-.16-.12-.19-.36-.14-1.34.23-5.84.23-5.88.02-.21-.14-.4-.35-.41-.21-.02-.4.14-.41.35-.02.19-.38,4.61-.23,6.03.05.53.33.8.56.94.25.15.54.2.84.2Z"/><path class="cls-3" d="M172.23,157.6h-1.74c.19-1.75.47-4.83-.97-5.27-4.54-1.39,1.34-4.6-.71-6.2-2.05-1.6-7.15-.92-10.69-1.03-3.57-.12-9.3-.07-10.69.26-1.39.32-.63,2.63-.12,4.43.51,1.79-1.71,3.77-2.08,5.63-.11.53-.08,1.32,0,2.18h-1.45c-.17-2.26-.2-4.36-.17-6.07.06-2.99,1.69-5.71,4.28-7.19,7.04-3.99,14.46-2.5,19.35-.62,3.39,1.3,5.56,4.63,5.39,8.26-.08,1.72-.21,3.68-.41,5.62Z"/><path class="cls-3" d="M238,239.74c-1.46-.69-2.69-1.37-3.94-2.02-10.83-5.66-23.18-9.93-36.73-12.71-22.65-4.64-43.25-5.57-62.96-2.84-17.01,2.36-30.36,6.97-42.15,11.04-11.55,3.99-20.89,7.21-29.99,7.06v8.25c10.53.13,20.87-3.44,32.68-7.51,23.12-7.98,51.89-17.92,100.77-7.91,18.37,3.76,32.09,9.98,42.33,16.3v-9.65Z"/><path class="cls-1" d="M192.19,234.82s.13-2.62.94-6.38c.41-1.91,2.12-3.58,3.06-1.83.75,1.38.43,2.92.76,4.42,0,0,.21-1,.55-3.53.31-2.29,1.77-2.67,2.52-1.31.71,1.28.29,1.38.34,2.53.07,1.54.07,3.48.07,3.48,0,0-.25-2.16.57-5.06.38-1.33.71-2.77,2.45-1.59.87.59.95,3.08,1.22,5.66,0,0-.33-3.08.94-4.49,1.01-1.11,2.23-1.31,2.4.6.22,2.48.05,3.24.08,4.75.03,1.51-1,4.06-2.54,4.14-1.54.08-2.2-.77-3.17-.49-.97.29-2.44.94-3.3.6-.86-.34-1.57-.22-2.67.15-1.08.37-3.76-.21-4.23-1.65Z"/><path class="cls-1" d="M127.53,234.82s-.13-2.62-.94-6.38c-.41-1.91-2.12-3.58-3.06-1.83-.75,1.38-.43,2.92-.76,4.42,0,0-.21-1-.55-3.53-.31-2.29-1.77-2.67-2.52-1.31-.71,1.28-.29,1.38-.34,2.53-.07,1.54-.07,3.48-.07,3.48,0,0,.25-2.16-.57-5.06-.38-1.33-.71-2.77-2.45-1.59-.87.59-.95,3.08-1.22,5.66,0,0,.33-3.08-.94-4.49-1.01-1.11-2.23-1.31-2.4.6-.22,2.48-.05,3.24-.08,4.75-.03,1.51,1,4.06,2.54,4.14,1.54.08,2.2-.77,3.17-.49.97.29,2.44.94,3.3.6.86-.34,1.57-.22,2.67.15,1.08.37,3.76-.21,4.23-1.65Z"/></g></svg>